<?xml version="1.0" encoding="UTF-8"?>
<svg xmlns="http://www.w3.org/2000/svg" xmlns:xlink="http://www.w3.org/1999/xlink" width="24px" height="24px" viewBox="0 0 24 24" version="1.1">
<g id="surface1">
<path style="fill-rule:evenodd;fill:currentColor;fill-opacity:1;" d="M 12.839844 4.832031 L 6.429688 11.410156 L 6.421875 11.421875 C 4.441406 13.398438 4.441406 16.601562 6.421875 18.578125 C 8.398438 20.558594 11.601562 20.558594 13.578125 18.578125 L 19.835938 12.335938 C 20.203125 11.96875 20.796875 11.972656 21.164062 12.335938 C 21.53125 12.703125 21.527344 13.296875 21.164062 13.664062 L 14.90625 19.90625 C 12.195312 22.613281 7.804688 22.613281 5.09375 19.90625 C 2.386719 17.199219 2.386719 12.808594 5.089844 10.097656 L 11.5 3.515625 L 11.507812 3.507812 C 13.4375 1.582031 16.5625 1.582031 18.492188 3.507812 C 20.417969 5.433594 20.417969 8.558594 18.496094 10.488281 L 12.085938 17.066406 L 12.078125 17.078125 C 10.929688 18.222656 9.070312 18.222656 7.921875 17.078125 C 6.777344 15.929688 6.777344 14.070312 7.921875 12.921875 L 14.507812 6.335938 C 14.875 5.972656 15.46875 5.972656 15.835938 6.335938 C 16.199219 6.703125 16.199219 7.296875 15.835938 7.664062 L 9.25 14.25 C 8.832031 14.664062 8.832031 15.335938 9.25 15.75 C 9.664062 16.164062 10.332031 16.167969 10.746094 15.753906 L 17.15625 9.175781 L 17.164062 9.164062 C 18.363281 7.96875 18.363281 6.03125 17.164062 4.835938 C 15.972656 3.640625 14.035156 3.636719 12.839844 4.832031 Z M 12.839844 4.832031 "/>
</g>
</svg>
