<svg width="25" height="24" viewBox="0 0 25 24" fill="none" xmlns="http://www.w3.org/2000/svg">
<g clip-path="url(#clip0_102_5658)">
<path d="M24.5 9.70922C24.5 13.605 22.2117 16.9652 18.9069 18.5114C17.6635 19.0935 16.2798 19.4184 14.8168 19.4184C14.0168 19.4184 13.2399 19.3221 12.4989 19.1369V23.7206C11.7569 23.9016 10.9811 23.9989 10.1842 23.9989C4.83495 24 0.5 19.6534 0.5 14.2908C0.5 10.395 2.78833 7.03373 6.0931 5.48856C7.33648 4.90647 8.72025 4.58156 10.1832 4.58156C10.9801 4.58156 11.7569 4.67787 12.4979 4.8599V0.281519C13.2399 0.096309 14.0168 0 14.8168 0C20.1651 0 24.5 4.34661 24.5 9.70922Z" fill="#FCFCFC"/>
</g>
<defs>
<clipPath id="clip0_102_5658">
<rect width="24" height="24" fill="white" transform="translate(0.5)"/>
</clipPath>
</defs>
</svg>
