<svg width="24" height="24" viewBox="0 0 24 24" fill="none" xmlns="http://www.w3.org/2000/svg">
<path d="M19.5348 15.4106C20.8198 16.0607 21.9215 17.1039 22.7257 18.4085C22.8849 18.6669 22.9645 18.7961 22.9921 18.9749C23.048 19.3385 22.8012 19.7854 22.465 19.9292C22.2996 20 22.1135 20 21.7413 20M17.7696 11.5842C19.0774 10.9297 19.9761 9.57054 19.9761 8C19.9761 6.42946 19.0774 5.07032 17.7696 4.41579M4.46517 15.4106C3.18018 16.0607 2.07848 17.104 1.27433 18.4086C1.11508 18.6669 1.03546 18.7961 1.00793 18.975C0.951985 19.3385 1.19881 19.7854 1.53497 19.9292C1.70039 20 1.88648 20 2.25865 20M6.23039 11.5842C4.92261 10.9297 4.02387 9.57055 4.02387 8.00001C4.02387 6.42947 4.92261 5.07033 6.23039 4.4158M16.0044 8C16.0044 10.2091 14.2262 12 12.0326 12C9.83911 12 8.06091 10.2091 8.06091 8C8.06091 5.79086 9.83911 4 12.0326 4C14.2262 4 16.0044 5.79086 16.0044 8ZM5.90666 18.1674C7.31381 16.0396 9.53431 14.6667 12.0326 14.6667C14.531 14.6667 16.7515 16.0396 18.1586 18.1674C18.4669 18.6335 18.621 18.8666 18.6033 19.1644C18.5895 19.3962 18.4386 19.68 18.2547 19.8201C18.0184 20 17.6936 20 17.0438 20H7.02151C6.37174 20 6.04686 20 5.81064 19.8201C5.62671 19.68 5.47582 19.3962 5.462 19.1644C5.44426 18.8666 5.59839 18.6335 5.90666 18.1674Z" stroke="currentColor" stroke-width="2" stroke-linecap="round" stroke-linejoin="round"/>
</svg>
